<svg id="_レイヤー_1" xmlns="http://www.w3.org/2000/svg" width="404.93" height="92" viewBox="0 0 404.93 92">
<defs>
<style>.cls-1{fill:#fdb86d;}.cls-2{fill:#fff;}.cls-3{fill:#fff;}</style>
</defs>
<g>
<circle class="cls-1" cx="46" cy="46" r="46"/>
<path class="cls-2" d="M57.37,59.79c0-2.5-.88-4.43-2.64-5.78-1.76-1.35-4.93-2.72-9.51-4.1-4.58-1.38-8.23-2.92-10.94-4.61-5.18-3.25-7.77-7.5-7.77-12.73,0-4.58,1.87-8.36,5.61-11.33,3.74-2.97,8.59-4.45,14.55-4.45,3.96,0,7.49,.73,10.59,2.19,3.1,1.46,5.53,3.54,7.3,6.23,1.77,2.7,2.66,5.68,2.66,8.96h-9.84c0-2.97-.93-5.29-2.79-6.97-1.86-1.68-4.53-2.52-7.99-2.52-3.23,0-5.74,.69-7.52,2.07-1.78,1.38-2.68,3.31-2.68,5.78,0,2.08,.96,3.82,2.89,5.21,1.93,1.39,5.1,2.75,9.53,4.06,4.43,1.32,7.98,2.81,10.66,4.49,2.68,1.68,4.65,3.61,5.9,5.78,1.25,2.17,1.88,4.72,1.88,7.64,0,4.74-1.82,8.51-5.45,11.31-3.63,2.8-8.56,4.2-14.79,4.2-4.12,0-7.9-.76-11.35-2.29-3.45-1.52-6.13-3.63-8.05-6.31-1.91-2.68-2.87-5.81-2.87-9.38h9.88c0,3.23,1.07,5.73,3.2,7.5,2.13,1.77,5.2,2.66,9.18,2.66,3.44,0,6.02-.7,7.75-2.09,1.73-1.39,2.6-3.24,2.6-5.53Z"/>
</g>
<g>
<path class="cls-3" d="M128.6,62.57c-2.79,3.28-6.75,4.92-11.88,4.92-4.58,0-8.05-1.34-10.41-4.02-2.36-2.68-3.54-6.56-3.54-11.64V24.45h9.49v27.27c0,5.37,2.23,8.05,6.68,8.05s7.72-1.65,9.34-4.96V24.45h9.49v42.27h-8.95l-.23-4.14Z"/>
<path class="cls-3" d="M156.26,24.45l.27,4.88c3.12-3.78,7.23-5.66,12.3-5.66,8.8,0,13.28,5.04,13.44,15.12v27.93h-9.49v-27.38c0-2.68-.58-4.67-1.74-5.96-1.16-1.29-3.05-1.93-5.68-1.93-3.83,0-6.68,1.73-8.55,5.2v30.08h-9.49V24.45h8.95Z"/>
<path class="cls-3" d="M226.67,58.82h25.82v7.89h-35.7V9.84h9.88V58.82Z"/>
<path class="cls-3" d="M279.25,66.71h-9.49V24.45h9.49v42.27Z"/>
<path class="cls-3" d="M293.92,45.27c0-6.56,1.54-11.8,4.63-15.72,3.09-3.92,7.18-5.88,12.29-5.88,4.82,0,8.61,1.68,11.37,5.04l.43-4.26h8.55v40.98c0,5.55-1.73,9.92-5.18,13.12-3.45,3.2-8.11,4.8-13.96,4.8-3.1,0-6.13-.64-9.08-1.93-2.96-1.29-5.2-2.98-6.74-5.06l4.49-5.7c2.92,3.46,6.51,5.2,10.78,5.2,3.15,0,5.64-.85,7.46-2.56,1.82-1.71,2.73-4.21,2.73-7.52v-2.85c-2.73,3.05-6.38,4.57-10.94,4.57-4.95,0-8.99-1.97-12.13-5.9-3.14-3.93-4.71-9.38-4.71-16.33Zm9.45,.82c0,4.25,.87,7.58,2.6,10.02,1.73,2.44,4.13,3.65,7.21,3.65,3.83,0,6.67-1.64,8.52-4.92v-18.59c-1.8-3.2-4.61-4.8-8.44-4.8-3.12,0-5.55,1.24-7.29,3.71-1.73,2.47-2.6,6.12-2.6,10.94Z"/>
<path class="cls-3" d="M350.28,29.05c3.1-3.59,7.02-5.39,11.76-5.39,9.01,0,13.58,5.14,13.71,15.43v27.62h-9.49v-27.27c0-2.92-.63-4.98-1.89-6.19-1.26-1.21-3.12-1.82-5.57-1.82-3.8,0-6.64,1.69-8.52,5.08v30.2h-9.49V6.71h9.49V29.05Z"/>
<path class="cls-3" d="M397.24,14.17v10.27h7.46v7.03h-7.46v23.59c0,1.62,.32,2.78,.96,3.5,.64,.72,1.78,1.07,3.42,1.07,1.09,0,2.2-.13,3.32-.39v7.34c-2.16,.6-4.25,.9-6.25,.9-7.29,0-10.94-4.02-10.94-12.07V31.48h-6.95v-7.03h6.95V14.17h9.49Z"/>
</g>
<g>
<rect class="cls-2" x="277.58" y="13.08" width="12.86" height="1.29" transform="translate(73.48 204.84) rotate(-45)"/>
<rect class="cls-2" x="263.36" y="7.3" width="1.29" height="12.86" transform="translate(67.62 190.7) rotate(-45)"/>
<rect class="cls-2" x="273.36" y="6.3" width="1.29" height="12.86"/>
</g>
</svg>