<svg xmlns="http://www.w3.org/2000/svg" xmlns:xlink="http://www.w3.org/1999/xlink" width="28.445" height="28.446" viewBox="0 0 28.445 28.446"><defs><clipPath id="a"><rect width="28.446" height="28.446" transform="translate(0 0)" fill="none"/></clipPath></defs><g clip-path="url(#a)"><path d="M18760.658-10611.886h-15.477a6.362,6.362,0,0,1-6.354-6.354v-15.477a6.362,6.362,0,0,1,6.354-6.354h15.477a6.362,6.362,0,0,1,6.354,6.354v15.477A6.362,6.362,0,0,1,18760.658-10611.886Zm-7.738-23.045c-5.182,0-9.4,3.421-9.4,7.625,0,3.756,3.3,6.919,7.855,7.521.318.069.723.206.83.462a1.821,1.821,0,0,1,.027.853c0,.007-.109.674-.131.8l0,.02c-.025.135-.074.384.041.521a.32.32,0,0,0,.258.1,1.429,1.429,0,0,0,.518-.132,30.109,30.109,0,0,0,7.381-5.454,6.821,6.821,0,0,0,2.016-4.691C18762.316-10631.51,18758.1-10634.931,18752.92-10634.931Z" transform="translate(-18738.834 10640.333)" fill="#fff"/><path d="M18760.658-10611.386h-15.477a6.861,6.861,0,0,1-6.854-6.854v-15.477a6.861,6.861,0,0,1,6.854-6.854h15.477a6.861,6.861,0,0,1,6.854,6.854v15.477A6.861,6.861,0,0,1,18760.658-10611.386Zm-15.477-28.184a5.86,5.86,0,0,0-5.854,5.854v15.477a5.86,5.86,0,0,0,5.854,5.854h15.477a5.86,5.86,0,0,0,5.854-5.854v-15.477a5.86,5.86,0,0,0-5.854-5.854Zm7.221,23.041a.8.8,0,0,1-.639-.275,1.08,1.08,0,0,1-.156-.917l.006-.031c.02-.121.115-.709.127-.782v0a1.634,1.634,0,0,0,.012-.577,1.179,1.179,0,0,0-.461-.176c-4.791-.644-8.268-4.011-8.268-8.015,0-4.48,4.439-8.125,9.9-8.125s9.9,3.645,9.9,8.125a7.3,7.3,0,0,1-2.143,5.024,30.307,30.307,0,0,1-7.561,5.582A1.873,1.873,0,0,1,18752.4-10616.528Zm.2-1.074,0,.03c.037-.013.08-.029.131-.05a30.037,30.037,0,0,0,7.2-5.32l.008-.009a6.35,6.35,0,0,0,1.885-4.354c0-3.929-3.99-7.125-8.9-7.125s-8.9,3.2-8.9,7.125c0,3.5,3.121,6.457,7.422,7.025l.039.008a1.518,1.518,0,0,1,1.186.757l0,.011a2.2,2.2,0,0,1,.059,1.1h0C18752.721-10618.318,18752.689-10618.122,18752.6-10617.6Z" transform="translate(-18738.834 10640.333)" fill="rgba(0,0,0,0)"/><path d="M201.971,126.316h-2.64a.179.179,0,0,1-.179-.179v0h0V122.04h0v0a.179.179,0,0,1,.179-.179h2.64a.18.18,0,0,1,.179.179v.666a.179.179,0,0,1-.179.179h-1.794v.692h1.794a.18.18,0,0,1,.179.179v.666a.179.179,0,0,1-.179.179h-1.794v.692h1.794a.18.18,0,0,1,.179.179v.666a.179.179,0,0,1-.179.179" transform="translate(-181.617 -110.862)" fill="#fff"/><path d="M91.1,126.316a.179.179,0,0,0,.179-.179v-.666a.18.18,0,0,0-.179-.179H89.3v-3.255a.18.18,0,0,0-.179-.179h-.666a.179.179,0,0,0-.179.179v4.1h0v0a.179.179,0,0,0,.179.179H91.1Z" transform="translate(-80.508 -110.862)" fill="#fff"/><path d="M129.576,121.855h-.666a.179.179,0,0,0-.179.179v4.1a.179.179,0,0,0,.179.179h.666a.179.179,0,0,0,.179-.179v-4.1a.179.179,0,0,0-.179-.179" transform="translate(-117.397 -110.861)" fill="#fff"/><path d="M151.362,121.855H150.7a.179.179,0,0,0-.179.179v2.436l-1.876-2.534-.014-.019h0l-.011-.011,0,0-.01-.008,0,0-.01-.007-.005,0-.01-.005-.006,0-.01,0-.006,0-.011,0-.006,0-.011,0h-.7a.179.179,0,0,0-.179.179v4.1a.179.179,0,0,0,.179.179h.666a.179.179,0,0,0,.179-.179V123.7l1.879,2.537a.182.182,0,0,0,.046.045h0l.011.007.005,0,.009,0,.009,0,.006,0,.012,0h0a.182.182,0,0,0,.047.006h.663a.179.179,0,0,0,.179-.179v-4.1a.179.179,0,0,0-.179-.179" transform="translate(-134.647 -110.861)" fill="#fff"/></g></svg>